# xmcd
#
# Track frame offsets: 
#        150
#        19532
#        36633
#        54343
#        74654
#        91902
#        108827
#        127022
#        142599
#
# Disc length: 2143 seconds
#
# Revision: 0
# Processed by: cddbd v1.5.2PL0 Copyright (c) Steve Scherf et al.
# Submitted via: ExactAudioCopy v0.99pb5
#
DISCID=75085d09
DTITLE=Jonahs Road - End Of The World (Limited Edition EP)
DYEAR=2010
DGENRE=Country
TTITLE0=End Of The World
TTITLE1=One Tree Mile
TTITLE2=Dust
TTITLE3=Two In A Million
TTITLE4=Broken Light
TTITLE5=Say It Right
TTITLE6=If I Was Him
TTITLE7=Honey Candy
TTITLE8=Just Go
EXTD=
EXTT0=
EXTT1=
EXTT2=
EXTT3=
EXTT4=
EXTT5=
EXTT6=
EXTT7=
EXTT8=
PLAYORDER=
